ffmpeg version 2.1.1 Copyright (c) 2000-2013 the FFmpeg developers
  built on Dec 20 2014 10:34:55 with gcc 4.7 (Debian 4.7.2-5)
  configuration: --enable-gpl --enable-nonfree --enable-postproc --enable-pthreads --enable-x11grab --enable-swscale --enable-version3 --enable-shared --disable-yasm --enable-filter=movie --enable-frei0r --enable-libdc1394 --enable-libfaac --enable-libmp3lame --enable-libx264 --enable-libxvid --enable-libfreetype --enable-libvorbis --enable-libgsm --enable-libopencore-amrnb --enable-libopencore-amrwb --enable-libopenjpeg --enable-librtmp --enable-libschroedinger --enable-libspeex --enable-libtheora --enable-libvpx --enable-libvo-amrwbenc --enable-libvo-aacenc --enable-libaacplus --enable-libxavs --enable-bzlib --enable-openssl --enable-gnutls --enable-openal --enable-libv4l2 --enable-libpulse --enable-libmodplug --enable-libass --enable-libcdio --enable-vdpau --enable-libbluray
  libavutil      52. 48.101 / 52. 48.101
  libavcodec     55. 39.101 / 55. 39.101
  libavformat    55. 19.104 / 55. 19.104
  libavdevice    55.  5.100 / 55.  5.100
  libavfilter     3. 90.100 /  3. 90.100
  libswscale      2.  5.101 /  2.  5.101
  libswresample   0. 17.104 /  0. 17.104
  libpostproc    52.  3.100 / 52.  3.100
Input #0, mov,mp4,m4a,3gp,3g2,mj2, from '/var/www/business-supermarket.com/web/www/temp/0423615001421841474.mp4':
  Metadata:
    major_brand     : isom
    minor_version   : 512
    compatible_brands: isomiso2avc1mp41
    date            : 2013-06-13T08:05:52+01:00
    encoder         : Lavf55.19.104
  Duration: 00:03:29.86, start: 0.023220, bitrate: 980 kb/s
    Stream #0:0(und): Video: h264 (Constrained Baseline) (avc1 / 0x31637661), yuv420p, 720x576 [SAR 64:45 DAR 16:9], 853 kb/s, 25 fps, 25 tbr, 12800 tbn, 50 tbc (default)
    Metadata:
      handler_name    : VideoHandler
    Stream #0:1(und): Audio: aac (mp4a / 0x6134706D), 44100 Hz, stereo, fltp, 121 kb/s (default)
    Metadata:
      handler_name    : SoundHandler
Please use -b:a or -b:v, -b is ambiguous
Output #0, flv, to '/var/www/business-supermarket.com/web/www/upload/users/jaguar_763/videos/0423615001421841474.flv':
  Metadata:
    major_brand     : isom
    minor_version   : 512
    compatible_brands: isomiso2avc1mp41
    date            : 2013-06-13T08:05:52+01:00
    encoder         : Lavf55.19.104
    Stream #0:0(und): Video: flv1 (flv) ([2][0][0][0] / 0x0002), yuv420p, 512x384 [SAR 4:3 DAR 16:9], q=2-31, 1000 kb/s, 1k tbn, 30 tbc (default)
    Metadata:
      handler_name    : VideoHandler
    Stream #0:1(und): Audio: mp3 (libmp3lame) ([2][0][0][0] / 0x0002), 44100 Hz, stereo, fltp, 128 kb/s (default)
    Metadata:
      handler_name    : SoundHandler
Stream mapping:
  Stream #0:0 -> #0:0 (h264 -> flv)
  Stream #0:1 -> #0:1 (aac -> libmp3lame)
Press [q] to stop, [?] for help
frame=   49 fps=0.0 q=1.6 size=     248kB time=00:00:02.00 bitrate=1012.7kbits/s    frame=  106 fps=105 q=2.0 size=     445kB time=00:00:04.30 bitrate= 846.8kbits/s    frame=  165 fps=109 q=2.0 size=     663kB time=00:00:06.65 bitrate= 815.7kbits/s    frame=  223 fps=111 q=2.0 size=     936kB time=00:00:08.98 bitrate= 853.1kbits/s    frame=  281 fps=112 q=2.0 size=    1201kB time=00:00:11.30 bitrate= 870.0kbits/s    frame=  333 fps=110 q=2.0 size=    1607kB time=00:00:13.37 bitrate= 984.3kbits/s    frame=  378 fps=107 q=2.0 size=    2191kB time=00:00:15.17 bitrate=1182.9kbits/s    frame=  427 fps=106 q=3.7 size=    2625kB time=00:00:17.13 bitrate=1255.3kbits/s    frame=  453 fps= 95 q=3.6 size=    2820kB time=00:00:18.17 bitrate=1271.0kbits/s    frame=  507 fps= 96 q=4.0 size=    3152kB time=00:00:20.34 bitrate=1269.2kbits/s    frame=  557 fps= 96 q=4.8 size=    3417kB time=00:00:22.33 bitrate=1253.6kbits/s    frame=  602 fps= 96 q=6.7 size=    3650kB time=00:00:24.16 bitrate=1237.7kbits/s    frame=  657 fps= 97 q=5.4 size=    3905kB time=00:00:26.32 bitrate=1215.1kbits/s    frame=  714 fps= 98 q=3.3 size=    4212kB time=00:00:28.62 bitrate=1205.2kbits/s    frame=  770 fps= 99 q=3.5 size=    4525kB time=00:00:30.85 bitrate=1201.6kbits/s    frame=  817 fps= 99 q=3.9 size=    4787kB time=00:00:32.72 bitrate=1198.3kbits/s    frame=  863 fps= 98 q=4.4 size=    5011kB time=00:00:34.58 bitrate=1187.0kbits/s    frame=  909 fps= 98 q=5.1 size=    5269kB time=00:00:36.43 bitrate=1184.5kbits/s    frame=  956 fps= 98 q=3.7 size=    5523kB time=00:00:38.32 bitrate=1180.8kbits/s    frame= 1008 fps= 98 q=2.0 size=    5807kB time=00:00:40.38 bitrate=1178.0kbits/s    frame= 1064 fps= 98 q=2.0 size=    6082kB time=00:00:42.63 bitrate=1168.8kbits/s    frame= 1122 fps= 99 q=2.0 size=    6360kB time=00:00:44.93 bitrate=1159.5kbits/s    frame= 1178 fps=100 q=2.0 size=    6636kB time=00:00:47.17 bitrate=1152.4kbits/s    frame= 1234 fps=100 q=2.0 size=    6868kB time=00:00:49.42 bitrate=1138.3kbits/s    frame= 1290 fps=101 q=2.0 size=    7149kB time=00:00:51.66 bitrate=1133.5kbits/s    frame= 1348 fps=101 q=2.0 size=    7430kB time=00:00:53.99 bitrate=1127.3kbits/s    frame= 1405 fps=102 q=1.6 size=    7711kB time=00:00:56.26 bitrate=1122.7kbits/s    frame= 1464 fps=102 q=2.0 size=    7946kB time=00:00:58.61 bitrate=1110.5kbits/s    frame= 1522 fps=103 q=2.0 size=    8229kB time=00:01:00.94 bitrate=1106.2kbits/s    frame= 1584 fps=103 q=2.0 size=    8514kB time=00:01:03.44 bitrate=1099.2kbits/s    frame= 1645 fps=104 q=1.6 size=    8828kB time=00:01:05.85 bitrate=1098.2kbits/s    frame= 1704 fps=104 q=2.0 size=    9013kB time=00:01:08.23 bitrate=1082.1kbits/s    frame= 1764 fps=105 q=2.0 size=    9192kB time=00:01:10.63 bitrate=1066.1kbits/s    frame= 1825 fps=105 q=1.6 size=    9337kB time=00:01:13.06 bitrate=1046.8kbits/s    frame= 1886 fps=106 q=2.0 size=    9465kB time=00:01:15.51 bitrate=1026.7kbits/s    frame= 1945 fps=106 q=1.6 size=    9716kB time=00:01:17.86 bitrate=1022.1kbits/s    frame= 2005 fps=106 q=1.6 size=    9935kB time=00:01:20.27 bitrate=1013.8kbits/s    frame= 2067 fps=107 q=2.0 size=   10198kB time=00:01:22.72 bitrate=1009.8kbits/s    frame= 2124 fps=107 q=2.0 size=   10432kB time=00:01:25.02 bitrate=1005.0kbits/s    frame= 2188 fps=107 q=2.0 size=   10766kB time=00:01:27.58 bitrate=1007.0kbits/s    frame= 2245 fps=108 q=1.6 size=   11061kB time=00:01:29.85 bitrate=1008.3kbits/s    frame= 2310 fps=108 q=2.0 size=   11306kB time=00:01:32.47 bitrate=1001.6kbits/s    frame= 2371 fps=108 q=2.0 size=   11550kB time=00:01:34.90 bitrate= 997.0kbits/s    frame= 2430 fps=109 q=2.0 size=   11790kB time=00:01:37.27 bitrate= 992.9kbits/s    frame= 2492 fps=109 q=2.0 size=   12035kB time=00:01:39.73 bitrate= 988.5kbits/s    frame= 2556 fps=109 q=2.0 size=   12281kB time=00:01:42.32 bitrate= 983.2kbits/s    frame= 2620 fps=110 q=2.0 size=   12565kB time=00:01:44.85 bitrate= 981.7kbits/s    frame= 2680 fps=110 q=2.0 size=   12808kB time=00:01:47.25 bitrate= 978.2kbits/s    frame= 2738 fps=110 q=2.0 size=   13049kB time=00:01:49.60 bitrate= 975.3kbits/s    frame= 2797 fps=110 q=1.6 size=   13292kB time=00:01:51.93 bitrate= 972.8kbits/s    frame= 2855 fps=110 q=2.0 size=   13487kB time=00:01:54.25 bitrate= 967.0kbits/s    frame= 2911 fps=110 q=2.0 size=   13617kB time=00:01:56.50 bitrate= 957.5kbits/s    frame= 2973 fps=110 q=2.0 size=   13751kB time=00:01:58.98 bitrate= 946.7kbits/s    frame= 3036 fps=111 q=2.0 size=   13917kB time=00:02:01.52 bitrate= 938.2kbits/s    frame= 3100 fps=111 q=2.0 size=   14151kB time=00:02:04.05 bitrate= 934.4kbits/s    frame= 3161 fps=111 q=2.0 size=   14352kB time=00:02:06.50 bitrate= 929.3kbits/s    frame= 3220 fps=111 q=2.0 size=   14633kB time=00:02:08.86 bitrate= 930.3kbits/s    frame= 3275 fps=111 q=2.0 size=   14847kB time=00:02:11.02 bitrate= 928.2kbits/s    frame= 3333 fps=111 q=2.0 size=   14962kB time=00:02:13.40 bitrate= 918.8kbits/s    frame= 3395 fps=112 q=2.0 size=   15251kB time=00:02:15.86 bitrate= 919.6kbits/s    frame= 3457 fps=112 q=2.0 size=   15524kB time=00:02:18.34 bitrate= 919.3kbits/s    frame= 3510 fps=112 q=1.6 size=   16372kB time=00:02:20.45 bitrate= 954.9kbits/s    frame= 3562 fps=112 q=2.0 size=   17257kB time=00:02:22.54 bitrate= 991.8kbits/s    frame= 3574 fps=110 q=2.0 size=   17458kB time=00:02:23.01 bitrate=1000.0kbits/s    frame= 3621 fps=110 q=2.0 size=   18266kB time=00:02:24.89 bitrate=1032.7kbits/s    frame= 3660 fps=109 q=2.0 size=   18908kB time=00:02:26.46 bitrate=1057.5kbits/s    frame= 3706 fps=109 q=2.0 size=   19677kB time=00:02:28.29 bitrate=1087.0kbits/s    frame= 3744 fps=109 q=2.0 size=   20233kB time=00:02:29.83 bitrate=1106.2kbits/s    frame= 3803 fps=109 q=2.0 size=   20461kB time=00:02:32.18 bitrate=1101.4kbits/s    frame= 3859 fps=109 q=2.0 size=   20838kB time=00:02:34.40 bitrate=1105.5kbits/s    frame= 3918 fps=109 q=1.6 size=   21064kB time=00:02:36.78 bitrate=1100.6kbits/s    frame= 3969 fps=109 q=2.0 size=   21335kB time=00:02:38.82 bitrate=1100.4kbits/s    frame= 4026 fps=109 q=1.6 size=   21608kB time=00:02:41.09 bitrate=1098.8kbits/s    frame= 4082 fps=109 q=2.0 size=   21823kB time=00:02:43.34 bitrate=1094.5kbits/s    frame= 4108 fps=108 q=2.0 size=   21937kB time=00:02:44.38 bitrate=1093.2kbits/s    frame= 4166 fps=108 q=2.0 size=   22360kB time=00:02:46.68 bitrate=1098.9kbits/s    frame= 4225 fps=108 q=2.0 size=   22778kB time=00:02:49.06 bitrate=1103.7kbits/s    frame= 4284 fps=108 q=2.0 size=   23060kB time=00:02:51.44 bitrate=1101.9kbits/s    frame= 4345 fps=109 q=2.0 size=   23268kB time=00:02:53.84 bitrate=1096.4kbits/s    frame= 4404 fps=109 q=2.0 size=   23507kB time=00:02:56.22 bitrate=1092.8kbits/s    frame= 4465 fps=109 q=2.0 size=   23717kB time=00:02:58.62 bitrate=1087.7kbits/s    frame= 4520 fps=109 q=2.0 size=   23945kB time=00:03:00.87 bitrate=1084.5kbits/s    frame= 4567 fps=109 q=2.0 size=   24364kB time=00:03:02.77 bitrate=1092.0kbits/s    frame= 4617 fps=109 q=2.0 size=   24819kB time=00:03:04.73 bitrate=1100.6kbits/s    frame= 4662 fps=108 q=1.6 size=   25627kB time=00:03:06.53 bitrate=1125.4kbits/s    frame= 4716 fps=108 q=3.4 size=   26306kB time=00:03:08.70 bitrate=1142.0kbits/s    frame= 4770 fps=108 q=6.3 size=   26757kB time=00:03:10.87 bitrate=1148.4kbits/s    frame= 4815 fps=108 q=9.0 size=   27033kB time=00:03:12.65 bitrate=1149.5kbits/s    frame= 4869 fps=108 q=6.0 size=   27328kB time=00:03:14.81 bitrate=1149.1kbits/s    frame= 4920 fps=108 q=5.9 size=   27606kB time=00:03:16.85 bitrate=1148.8kbits/s    frame= 4958 fps=107 q=7.5 size=   27819kB time=00:03:18.39 bitrate=1148.7kbits/s    frame= 5020 fps=107 q=1.6 size=   28064kB time=00:03:20.85 bitrate=1144.6kbits/s    frame= 5086 fps=107 q=2.0 size=   28266kB time=00:03:23.49 bitrate=1137.9kbits/s    frame= 5154 fps=107 q=2.0 size=   28543kB time=00:03:26.21 bitrate=1133.9kbits/s    frame= 5227 fps=108 q=2.0 size=   28663kB time=00:03:29.13 bitrate=1122.8kbits/s    frame= 5246 fps=105 q=2.0 Lsize=   28695kB time=00:03:29.89 bitrate=1120.0kbits/s    
video:25207kB audio:3280kB subtitle:0 global headers:0kB muxing overhead 0.729944%
